<svg xmlns="http://www.w3.org/2000/svg" viewBox="0 0 32 32"><g><path fill="currentColor" d="M31.72,30.39l-6.59-6.59c-0.24-0.24-0.58-0.31-0.9-0.23l-3.04-3.04c2.02-2.18,3.27-5.09,3.27-8.3 C24.47,5.49,18.98,0,12.24,0C5.49,0,0,5.49,0,12.24c0,6.75,5.49,12.23,12.24,12.23c3.2,0,6.12-1.25,8.3-3.27l3.04,3.04 c-0.08,0.31-0.01,0.65,0.23,0.9l6.59,6.59c0.18,0.18,0.42,0.28,0.67,0.28c0.24,0,0.48-0.09,0.67-0.28 C32.09,31.36,32.09,30.76,31.72,30.39z M12.24,22.59c-5.71,0-10.35-4.64-10.35-10.35c0-5.71,4.64-10.35,10.35-10.35 s10.35,4.64,10.35,10.35C22.59,17.94,17.94,22.59,12.24,22.59z"/></g></svg>